<svg width="11" height="19" viewBox="0 0 11 19" fill="none" xmlns="http://www.w3.org/2000/svg">
<path d="M8.26087 3.58128H10.3261C10.5541 3.58128 10.7391 3.40301 10.7391 3.18336V0.502572C10.7391 0.294062 10.5727 0.12057 10.3571 0.105847C9.69991 0.0608817 8.41617 0 7.49302 0C4.95652 0 3.30435 1.46434 3.30435 4.12563V6.76463H0.413043C0.185043 6.76463 0 6.9429 0 7.16255V9.94799C0 10.1676 0.185043 10.3459 0.413043 10.3459H3.30435V17.9064C3.30435 18.126 3.48939 18.3043 3.71739 18.3043H6.6087C6.8367 18.3043 7.02174 18.126 7.02174 17.9064V10.3459H10.0047C10.2154 10.3459 10.3922 10.1935 10.4153 9.99176L10.7367 7.20632C10.7639 6.97075 10.5723 6.76463 10.3261 6.76463H7.02174V4.77503C7.02174 4.11568 7.57646 3.58128 8.26087 3.58128Z" fill="white"/>
</svg>
