<svg width="141" height="32" viewBox="0 0 141 32" fill="none" xmlns="http://www.w3.org/2000/svg">
<path d="M0.90625 31.7812V2.48438L2.97656 1.50781H15.3594V1.70312L13.7773 5.0625H4.8125V14.4766H15.3594V14.6719L13.7773 18.0312H4.8125V30.0234L1.10156 31.7812H0.90625ZM23.0742 5.19922C22.6185 4.73047 22.3906 4.17057 22.3906 3.51953C22.3906 2.85547 22.6185 2.28906 23.0742 1.82031C23.5299 1.35156 24.0833 1.11719 24.7344 1.11719C25.3854 1.11719 25.9388 1.35156 26.3945 1.82031C26.8503 2.28906 27.0781 2.85547 27.0781 3.51953C27.0781 4.17057 26.8503 4.73047 26.3945 5.19922C25.9388 5.66797 25.3854 5.90234 24.7344 5.90234C24.0833 5.90234 23.5299 5.66797 23.0742 5.19922ZM22.7812 31.7812V10.4922L26.4922 8.73438H26.6875V30.0234L22.9766 31.7812H22.7812ZM34.5 31.7812V2.48438L38.2109 0.726562H38.4062V30.0234L34.6953 31.7812H34.5ZM45.2422 31.7812V15.375C45.2422 11.4688 47.1953 9.51562 51.1016 9.51562H55.5938C57.3906 9.51562 58.6927 9.9974 59.5 10.9609C60.3594 9.9974 61.6615 9.51562 63.4062 9.51562H67.8984C71.8047 9.51562 73.7578 11.4688 73.7578 15.375V30.0234L70.0469 31.7812H69.8516V15.375C69.8516 13.8125 69.2005 13.0312 67.8984 13.0312H63.4062C62.1042 13.0312 61.4531 13.8125 61.4531 15.375V30.0234L57.7422 31.7812H57.5469V15.375C57.5469 13.8125 56.8958 13.0312 55.5938 13.0312H51.1016C49.7995 13.0312 49.1484 13.8125 49.1484 15.375V30.0234L45.4375 31.7812H45.2422ZM80.5938 31.7812V2.48438L82.6641 1.50781H95.0469V1.70312L93.4648 5.0625H84.5V14.4766H95.0469V14.6719L93.4648 18.0312H84.5V30.0234L80.7891 31.7812H80.5938ZM102.469 31.7812V2.48438L106.18 0.726562H106.375V30.0234L102.664 31.7812H102.469ZM114.48 5.19922C114.025 4.73047 113.797 4.17057 113.797 3.51953C113.797 2.85547 114.025 2.28906 114.48 1.82031C114.936 1.35156 115.49 1.11719 116.141 1.11719C116.792 1.11719 117.345 1.35156 117.801 1.82031C118.257 2.28906 118.484 2.85547 118.484 3.51953C118.484 4.17057 118.257 4.73047 117.801 5.19922C117.345 5.66797 116.792 5.90234 116.141 5.90234C115.49 5.90234 114.936 5.66797 114.48 5.19922ZM114.188 31.7812V10.4922L117.898 8.73438H118.094V30.0234L114.383 31.7812H114.188ZM127.156 31.7812H126.961L123.562 30.1797L129.617 20.2578L123.562 10.3555L126.98 8.73438H127.176L131.922 17.0742L136.648 8.73438H136.844L140.262 10.3555L134.207 20.2578L140.262 30.1797L136.863 31.7812H136.668L131.922 23.4219L127.156 31.7812Z" fill="white"/>
</svg>
