<svg width="112" height="26" viewBox="0 0 112 26" fill="none" xmlns="http://www.w3.org/2000/svg">
<path d="M0.125 25.625V2.1875L1.78125 1.40625H11.6875V1.5625L10.4219 4.25H3.25V11.7812H11.6875V11.9375L10.4219 14.625H3.25V24.2188L0.28125 25.625H0.125ZM17.8594 4.35938C17.4948 3.98438 17.3125 3.53646 17.3125 3.01562C17.3125 2.48438 17.4948 2.03125 17.8594 1.65625C18.224 1.28125 18.6667 1.09375 19.1875 1.09375C19.7083 1.09375 20.151 1.28125 20.5156 1.65625C20.8802 2.03125 21.0625 2.48438 21.0625 3.01562C21.0625 3.53646 20.8802 3.98438 20.5156 4.35938C20.151 4.73438 19.7083 4.92188 19.1875 4.92188C18.6667 4.92188 18.224 4.73438 17.8594 4.35938ZM17.625 25.625V8.59375L20.5938 7.1875H20.75V24.2188L17.7812 25.625H17.625ZM27 25.625V2.1875L29.9688 0.78125H30.125V24.2188L27.1562 25.625H27ZM35.5938 25.625V12.5C35.5938 9.375 37.1562 7.8125 40.2812 7.8125H43.875C45.3125 7.8125 46.3542 8.19792 47 8.96875C47.6875 8.19792 48.7292 7.8125 50.125 7.8125H53.7188C56.8438 7.8125 58.4062 9.375 58.4062 12.5V24.2188L55.4375 25.625H55.2812V12.5C55.2812 11.25 54.7604 10.625 53.7188 10.625H50.125C49.0833 10.625 48.5625 11.25 48.5625 12.5V24.2188L45.5938 25.625H45.4375V12.5C45.4375 11.25 44.9167 10.625 43.875 10.625H40.2812C39.2396 10.625 38.7188 11.25 38.7188 12.5V24.2188L35.75 25.625H35.5938ZM63.875 25.625V2.1875L65.5312 1.40625H75.4375V1.5625L74.1719 4.25H67V11.7812H75.4375V11.9375L74.1719 14.625H67V24.2188L64.0312 25.625H63.875ZM81.375 25.625V2.1875L84.3438 0.78125H84.5V24.2188L81.5312 25.625H81.375ZM90.9844 4.35938C90.6198 3.98438 90.4375 3.53646 90.4375 3.01562C90.4375 2.48438 90.6198 2.03125 90.9844 1.65625C91.349 1.28125 91.7917 1.09375 92.3125 1.09375C92.8333 1.09375 93.276 1.28125 93.6406 1.65625C94.0052 2.03125 94.1875 2.48438 94.1875 3.01562C94.1875 3.53646 94.0052 3.98438 93.6406 4.35938C93.276 4.73438 92.8333 4.92188 92.3125 4.92188C91.7917 4.92188 91.349 4.73438 90.9844 4.35938ZM90.75 25.625V8.59375L93.7188 7.1875H93.875V24.2188L90.9062 25.625H90.75ZM101.125 25.625H100.969L98.25 24.3438L103.094 16.4062L98.25 8.48438L100.984 7.1875H101.141L104.938 13.8594L108.719 7.1875H108.875L111.609 8.48438L106.766 16.4062L111.609 24.3438L108.891 25.625H108.734L104.938 18.9375L101.125 25.625Z" fill="#323232"/>
</svg>
