<svg width="20" height="20" viewBox="0 0 20 20" fill="none" xmlns="http://www.w3.org/2000/svg">
<path d="M6.4002 1.19922C3.5322 1.19922 1.2002 3.53122 1.2002 6.39922V13.5992C1.2002 16.4672 3.5322 18.7992 6.4002 18.7992H13.6002C16.4682 18.7992 18.8002 16.4672 18.8002 13.5992V6.39922C18.8002 3.53122 16.4682 1.19922 13.6002 1.19922H6.4002ZM14.8002 4.39922C15.2402 4.39922 15.6002 4.75922 15.6002 5.19922C15.6002 5.63922 15.2402 5.99922 14.8002 5.99922C14.3602 5.99922 14.0002 5.63922 14.0002 5.19922C14.0002 4.75922 14.3602 4.39922 14.8002 4.39922ZM10.0002 5.59922C12.4282 5.59922 14.4002 7.57122 14.4002 9.99922C14.4002 12.4272 12.4282 14.3992 10.0002 14.3992C7.5722 14.3992 5.6002 12.4272 5.6002 9.99922C5.6002 7.57122 7.5722 5.59922 10.0002 5.59922ZM10.0002 6.39922C8.0162 6.39922 6.4002 8.01522 6.4002 9.99922C6.4002 11.9832 8.0162 13.5992 10.0002 13.5992C11.9842 13.5992 13.6002 11.9832 13.6002 9.99922C13.6002 8.01522 11.9842 6.39922 10.0002 6.39922Z" fill="white"/>
</svg>
