<svg width="20" height="16" viewBox="0 0 20 16" fill="none" xmlns="http://www.w3.org/2000/svg">
<path d="M19.4417 3.34538C19.2568 2.36227 18.3759 1.64632 17.3536 1.42281C15.8238 1.11023 12.9926 0.886719 9.92931 0.886719C6.86786 0.886719 3.9913 1.11023 2.45967 1.42281C1.43919 1.64632 0.556463 2.31687 0.371578 3.34538C0.184884 4.46296 0 6.02756 0 8.03919C0 10.0508 0.184884 11.6154 0.416894 12.733C0.603588 13.7161 1.4845 14.4321 2.50499 14.6556C4.12906 14.9682 6.91318 15.1917 9.97644 15.1917C13.0397 15.1917 15.8238 14.9682 17.4479 14.6556C18.4684 14.4321 19.3493 13.7615 19.536 12.733C19.7209 11.6154 19.9529 10.0054 20 8.03919C19.9057 6.02756 19.6737 4.46296 19.4417 3.34538ZM7.42433 11.1684V4.90999L13.085 8.03919L7.42433 11.1684Z" fill="white"/>
</svg>
